<svg width="150" height="150" viewBox="0 0 150 150" fill="none" xmlns="http://www.w3.org/2000/svg">
<circle cx="75" cy="75" r="75" fill="#DAEEFF"/>
<circle cx="75" cy="75" r="56.4607" fill="#FECDDC"/>
<path d="M70.4219 68.4671C73.9002 59.6701 66.697 54.8548 61.9223 51.6899C61.0094 51.0434 60.0964 50.4393 59.3569 49.8863C58.0353 48.8471 57.0617 47.4761 56.5519 45.9362C56.0421 44.3964 56.0176 42.7525 56.4811 41.2C56.5288 41.0376 56.5276 40.866 56.4777 40.7042C56.4279 40.5423 56.3312 40.3964 56.1984 40.2822C56.0655 40.1681 55.9016 40.0902 55.7244 40.057C55.5473 40.0238 55.3638 40.0366 55.1939 40.094C53.5859 40.6868 52.0909 41.517 50.7661 42.5527C49.4932 43.4672 48.462 44.6412 47.7514 45.9847C47.0409 47.3282 46.6699 48.8054 46.667 50.3032C45.7667 50.9646 44.9707 51.7407 44.3024 52.6088C43.0748 54.1705 42.4592 56.0774 42.5587 58.0111C41.0963 59.2628 40.0072 60.8464 39.3976 62.6074C38.788 64.3684 38.6787 66.2466 39.0804 68.0587C38.4986 68.3863 38.0483 68.8827 37.7986 69.4719C37.5489 70.061 37.5136 70.7102 37.6981 71.3198C37.8827 71.9295 38.2768 72.4658 38.8201 72.8465C39.3634 73.2271 40.0257 73.4311 40.7054 73.427H40.7693V78.4296C40.7693 78.9372 40.9857 79.4241 41.371 79.7831C41.7562 80.1421 42.2787 80.3438 42.8235 80.3438H44.4211L47.023 101.358C47.0771 101.826 47.315 102.258 47.6908 102.572C48.0667 102.886 48.554 103.06 49.0589 103.059H59.8865C60.3918 103.058 60.8791 102.884 61.256 102.571C61.633 102.257 61.8733 101.826 61.9315 101.358L64.5334 80.3438H66.131C66.6758 80.3438 67.1983 80.1421 67.5835 79.7831C67.9687 79.4241 68.1851 78.9372 68.1851 78.4296V73.427H68.2491C69.0747 73.427 69.8666 73.1214 70.4504 72.5773C71.0342 72.0333 71.3622 71.2953 71.3622 70.5259C71.3663 70.1419 71.2877 69.761 71.1309 69.4059C70.974 69.0508 70.7422 68.7286 70.4492 68.4586L70.4219 68.4671ZM46.9865 52.5067C48.3011 57.1093 53.3771 58.9215 58.0058 60.5379C58.1302 60.6093 58.27 60.6543 58.4152 60.6696C58.5604 60.685 58.7074 60.6703 58.8458 60.6268C58.9843 60.5832 59.1107 60.5117 59.2162 60.4175C59.3217 60.3232 59.4036 60.2085 59.4561 60.0814C59.5086 59.9543 59.5304 59.818 59.52 59.6822C59.5096 59.5463 59.4672 59.4143 59.3959 59.2955C59.3245 59.1766 59.226 59.0739 59.1072 58.9945C58.9885 58.9152 58.8524 58.8612 58.7087 58.8364C53.724 57.0753 49.0224 55.4333 48.6663 50.7286C48.5829 49.4353 48.8434 48.1428 49.4247 46.9659C50.006 45.789 50.8901 44.764 51.9986 43.982C52.693 43.4435 53.4386 42.9651 54.2262 42.5527C54.1754 43.1416 54.1754 43.7334 54.2262 44.3223C54.3318 45.6705 54.7273 46.9851 55.3892 48.1879C56.051 49.3908 56.9657 50.4573 58.0788 51.3241C58.8366 51.9282 59.7769 52.5492 60.8177 53.2128C63.2187 54.8208 65.9484 56.6159 67.683 59.0491C68.6085 60.2969 69.1843 61.7407 69.3582 63.2489C69.532 64.7571 69.2982 66.2818 68.6781 67.6844H68.2947H64.6429C56.326 67.6844 46.7674 65.5404 44.8776 59.534C44.5027 58.2983 44.5058 56.9896 44.8864 55.7554C45.2671 54.5213 46.0103 53.4108 47.0321 52.5492L46.9865 52.5067ZM54.4727 81.5093L57.5219 84.3509L54.4727 87.1925L51.4234 84.3339L54.4727 81.5093ZM61.4658 88.9706L58.9461 91.3187L55.8968 88.4771L58.9461 85.6441L61.5937 88.1028L61.4658 88.9706ZM54.4727 95.4874L51.4234 92.6459L54.4727 89.8043L57.5219 92.6459L54.4727 95.4874ZM53.0758 88.4941L50.0266 91.3357L47.4886 88.9706L47.3791 88.1198L50.0266 85.6611L53.0758 88.4941ZM48.6207 92.6459L48.009 93.2159L47.8538 91.9227L48.6207 92.6459ZM48.3011 95.5555L50.0266 93.9475L53.3771 97.0954C53.3943 97.1589 53.4156 97.2215 53.441 97.2826H48.5111L48.3011 95.5555ZM58.9278 93.9475L60.6533 95.5555L60.4433 97.257H55.3765L58.9278 93.9475ZM60.9363 93.2159L60.3247 92.6459L61.1007 91.9227L60.9363 93.2159ZM61.8493 85.7802L60.3247 84.3339L62.2601 82.5303L61.8493 85.7802ZM58.9187 83.0407L56.0247 80.3523H61.8128L58.9187 83.0407ZM50.0175 83.0407L47.1234 80.3523H52.9115L50.0175 83.0407ZM59.8773 101.213H49.0589C49.0426 101.211 49.0275 101.204 49.0159 101.194C49.0043 101.183 48.9969 101.169 48.995 101.154L48.7393 99.1117H60.206L59.9595 101.154C59.9572 101.17 59.9486 101.185 59.9351 101.196C59.9216 101.207 59.9043 101.213 59.8865 101.213H59.8773ZM68.2491 71.5724H65.072C64.9339 71.56 64.7946 71.5747 64.663 71.6154C64.5313 71.6562 64.4103 71.7222 64.3076 71.8091C64.205 71.896 64.1229 72.002 64.0668 72.1202C64.0107 72.2384 63.9817 72.3662 63.9817 72.4955C63.9817 72.6247 64.0107 72.7525 64.0668 72.8707C64.1229 72.9889 64.205 73.0949 64.3076 73.1818C64.4103 73.2688 64.5313 73.3347 64.663 73.3755C64.7946 73.4162 64.9339 73.4309 65.072 73.4185H66.204V78.421C66.2018 78.4376 66.1932 78.4528 66.1797 78.4638C66.1662 78.4747 66.1489 78.4807 66.131 78.4806H42.7869C42.769 78.4807 42.7517 78.4747 42.7383 78.4638C42.7248 78.4528 42.7161 78.4376 42.7139 78.421V73.4185H60.7994C61.0457 73.3965 61.2744 73.2897 61.4407 73.119C61.6071 72.9484 61.6993 72.726 61.6993 72.4955C61.6993 72.2649 61.6071 72.0426 61.4407 71.8719C61.2744 71.7012 61.0457 71.5944 60.7994 71.5724H40.7145C40.558 71.5855 40.4001 71.5681 40.2512 71.5213C40.1022 71.4745 39.9653 71.3992 39.8492 71.3004C39.7332 71.2015 39.6405 71.0812 39.5771 70.9472C39.5137 70.8131 39.4809 70.6682 39.4809 70.5217C39.4809 70.3752 39.5137 70.2302 39.5771 70.0962C39.6405 69.9621 39.7332 69.8418 39.8492 69.743C39.9653 69.6441 40.1022 69.5689 40.2512 69.5221C40.4001 69.4752 40.558 69.4578 40.7145 69.471H42.7869C43.0332 69.4489 43.2619 69.3421 43.4283 69.1715C43.5946 69.0008 43.6868 68.7785 43.6868 68.5479C43.6868 68.3173 43.5946 68.095 43.4283 67.9243C43.2619 67.7537 43.0332 67.6469 42.7869 67.6248H40.961C40.6995 66.3303 40.742 64.9984 41.0856 63.7207C41.4291 62.443 42.0656 61.2498 42.9513 60.2231C43.5903 62.0778 45.2336 64.6131 49.3419 66.6294C53.2037 68.5096 58.3162 69.471 64.5334 69.471H68.1851C68.3417 69.4578 68.4996 69.4752 68.6485 69.5221C68.7975 69.5689 68.9344 69.6441 69.0504 69.743C69.1665 69.8418 69.2592 69.9621 69.3226 70.0962C69.386 70.2302 69.4187 70.3752 69.4187 70.5217C69.4187 70.6682 69.386 70.8131 69.3226 70.9472C69.2592 71.0812 69.1665 71.2015 69.0504 71.3004C68.9344 71.3992 68.7975 71.4745 68.6485 71.5213C68.4996 71.5681 68.3417 71.5855 68.1851 71.5724H68.2491Z" fill="#FF7487"/>
<mask id="path-4-outside-1_2008_470" maskUnits="userSpaceOnUse" x="68.4631" y="84.0541" width="45" height="21" fill="black">
<rect fill="white" x="68.4631" y="84.0541" width="45" height="21"/>
<path d="M86.1837 91.5365C81.8087 91.5365 79.6212 92.4984 79.6212 94.4222C79.6212 95.4574 80.0558 96.2582 80.9249 96.8246C81.8038 97.3812 83.088 97.6595 84.7775 97.6595C86.4767 97.6595 88.132 97.5228 89.7433 97.2494L89.8458 101.864C87.9904 102.352 85.9689 102.596 83.7814 102.596C81.5939 102.596 79.7579 102.425 78.2736 102.083C76.7892 101.751 75.6271 101.38 74.7872 100.97C73.9474 100.56 73.2052 100.081 72.5607 99.5345C71.174 98.3627 70.4855 96.8002 70.4952 94.847C70.4952 93.6361 70.7345 92.5424 71.213 91.5658C72.0919 89.7787 73.6251 88.4701 75.8126 87.64C78.0001 86.8002 80.4122 86.3802 83.049 86.3802C85.6857 86.3802 88.1857 86.6732 90.549 87.2592L90.1827 91.9613C88.6886 91.6781 87.3556 91.5365 86.1837 91.5365ZM105.098 92.8842C105.088 91.9662 104.873 91.3168 104.453 90.9359C104.043 90.5551 103.438 90.3646 102.637 90.3646C101.846 90.3646 101.206 90.6039 100.718 91.0824C100.23 91.5511 99.9269 92.142 99.8097 92.8549L105.098 92.8842ZM110.84 100.853C110.234 101.312 109.155 101.712 107.603 102.054C106.05 102.406 104.541 102.581 103.076 102.581C101.621 102.581 100.386 102.513 99.3702 102.376C98.3546 102.24 97.3488 101.995 96.3527 101.644C95.3566 101.283 94.5021 100.828 93.7892 100.282C93.0861 99.725 92.5148 99.0072 92.0753 98.1283C91.6359 97.2396 91.4161 96.1801 91.4161 94.9496C91.4161 93.7094 91.6407 92.5717 92.09 91.5365C92.5392 90.5013 93.1202 89.6664 93.8331 89.0316C95.8156 87.264 98.6866 86.3802 102.446 86.3802C104.234 86.3802 105.933 86.722 107.544 87.4056C109.155 88.1088 110.303 89.1635 110.986 90.5697C111.377 91.3607 111.572 92.2347 111.572 93.1918L111.397 95.6088L99.5167 95.5502C99.7511 96.4388 100.318 97.1371 101.216 97.6449C102.124 98.1527 103.359 98.4066 104.922 98.4066C106.484 98.4066 108.286 97.9818 110.327 97.1322H111.118L110.84 100.853Z"/>
</mask>
<path d="M80.9249 96.8246L80.106 98.0813L80.1141 98.0866L80.1223 98.0918L80.9249 96.8246ZM89.7433 97.2494L91.2429 97.2161L91.2043 95.48L89.4923 95.7705L89.7433 97.2494ZM89.8458 101.864L90.2276 103.314L91.3717 103.013L91.3455 101.83L89.8458 101.864ZM78.2736 102.083L78.6102 100.622L78.601 100.62L78.2736 102.083ZM72.5607 99.5345L73.5311 98.3908L73.5289 98.3889L72.5607 99.5345ZM70.4952 94.847L71.9952 94.8545V94.847H70.4952ZM71.213 91.5658L69.867 90.9038L69.866 90.9058L71.213 91.5658ZM75.8126 87.64L76.3448 89.0424L76.3503 89.0404L75.8126 87.64ZM90.549 87.2592L92.0444 87.3756L92.1431 86.109L90.9099 85.8032L90.549 87.2592ZM90.1827 91.9613L89.9034 93.4351L91.5482 93.7468L91.6782 92.0778L90.1827 91.9613ZM86.1837 90.0365C83.9326 90.0365 82.0404 90.277 80.658 90.8848C79.9497 91.1963 79.3052 91.6346 78.836 92.2536C78.3521 92.8919 78.1212 93.6359 78.1212 94.4222H81.1212C81.1212 94.2466 81.1638 94.149 81.2267 94.0659C81.3044 93.9634 81.4802 93.8005 81.8656 93.631C82.6708 93.277 84.0598 93.0365 86.1837 93.0365V90.0365ZM78.1212 94.4222C78.1212 95.9658 78.8131 97.2388 80.106 98.0813L81.7439 95.5679C81.2985 95.2776 81.1212 94.949 81.1212 94.4222H78.1212ZM80.1223 98.0918C81.348 98.8681 82.9641 99.1595 84.7775 99.1595V96.1595C83.2119 96.1595 82.2597 95.8944 81.7275 95.5574L80.1223 98.0918ZM84.7775 99.1595C86.5575 99.1595 88.2968 99.0163 89.9942 98.7282L89.4923 95.7705C87.9671 96.0294 86.3959 96.1595 84.7775 96.1595V99.1595ZM88.2437 97.2827L88.3462 101.897L91.3455 101.83L91.2429 97.2161L88.2437 97.2827ZM89.4641 100.413C87.7492 100.864 85.8577 101.096 83.7814 101.096V104.096C86.0801 104.096 88.2315 103.84 90.2276 103.314L89.4641 100.413ZM83.7814 101.096C81.6625 101.096 79.9478 100.93 78.6101 100.622L77.937 103.545C79.5681 103.921 81.5252 104.096 83.7814 104.096V101.096ZM78.601 100.62C77.1693 100.299 76.1352 99.9591 75.4455 99.6222L74.129 102.318C75.1189 102.801 76.4091 103.203 77.9461 103.547L78.601 100.62ZM75.4455 99.6222C74.7061 99.2612 74.0711 98.8489 73.5311 98.3908L71.5902 100.678C72.3393 101.314 73.1887 101.859 74.129 102.318L75.4455 99.6222ZM73.5289 98.3889C72.5096 97.5275 71.9875 96.4018 71.9952 94.8545L68.9953 94.8395C68.9835 97.1985 69.8383 99.1978 71.5925 100.68L73.5289 98.3889ZM71.9952 94.847C71.9952 93.8387 72.1931 92.9746 72.56 92.2258L69.866 90.9058C69.2759 92.1101 68.9952 93.4336 68.9952 94.847H71.9952ZM72.559 92.2278C73.2414 90.8403 74.4464 89.7628 76.3448 89.0424L75.2805 86.2376C72.8039 87.1774 70.9424 88.7171 69.867 90.9038L72.559 92.2278ZM76.3503 89.0404C78.346 88.2741 80.5732 87.8802 83.049 87.8802V84.8802C80.2513 84.8802 77.6542 85.3262 75.275 86.2397L76.3503 89.0404ZM83.049 87.8802C85.574 87.8802 87.9521 88.1607 90.188 88.7151L90.9099 85.8032C88.4192 85.1857 85.7973 84.8802 83.049 84.8802V87.8802ZM89.0535 87.1427L88.6873 91.8448L91.6782 92.0778L92.0444 87.3756L89.0535 87.1427ZM90.4621 90.4875C88.9014 90.1917 87.4722 90.0365 86.1837 90.0365V93.0365C87.239 93.0365 88.4758 93.1645 89.9034 93.4351L90.4621 90.4875ZM105.098 92.8842L105.089 94.3841L106.614 94.3926L106.598 92.8682L105.098 92.8842ZM104.453 90.9359L103.433 92.0351L103.439 92.0411L103.446 92.047L104.453 90.9359ZM100.718 91.0824L101.757 92.1645L101.762 92.1591L101.768 92.1537L100.718 91.0824ZM99.8097 92.8549L98.3296 92.6115L98.0446 94.3451L99.8014 94.3548L99.8097 92.8549ZM110.84 100.853L111.746 102.048L112.285 101.64L112.336 100.965L110.84 100.853ZM107.603 102.054L107.28 100.589L107.271 100.591L107.603 102.054ZM96.3527 101.644L95.8411 103.054L95.8534 103.058L96.3527 101.644ZM93.7892 100.282L92.8581 101.458L92.8671 101.465L92.8762 101.472L93.7892 100.282ZM92.0753 98.1283L90.7307 98.7932L90.7337 98.7991L92.0753 98.1283ZM93.8331 89.0316L94.8306 90.1519L94.8314 90.1512L93.8331 89.0316ZM107.544 87.4056L108.144 86.0308L108.137 86.0278L108.13 86.0248L107.544 87.4056ZM110.986 90.5697L109.637 91.2255L109.642 91.2339L110.986 90.5697ZM111.572 93.1918L113.068 93.3006L113.072 93.2462V93.1918H111.572ZM111.397 95.6088L111.389 97.1087L112.791 97.1157L112.893 95.7176L111.397 95.6088ZM99.5167 95.5502L99.5241 94.0502L97.5673 94.0405L98.0663 95.9327L99.5167 95.5502ZM101.216 97.6449L100.478 98.9508L100.484 98.9541L101.216 97.6449ZM110.327 97.1322V95.6322H110.028L109.751 95.7474L110.327 97.1322ZM111.118 97.1322L112.614 97.2441L112.735 95.6322H111.118V97.1322ZM106.598 92.8682C106.586 91.7832 106.337 90.6191 105.461 89.8248L103.446 92.047C103.428 92.031 103.462 92.0501 103.505 92.1797C103.551 92.3171 103.594 92.5465 103.598 92.9001L106.598 92.8682ZM105.474 89.8367C104.687 89.1057 103.654 88.8646 102.637 88.8646V91.8646C103.221 91.8646 103.399 92.0044 103.433 92.0351L105.474 89.8367ZM102.637 88.8646C101.52 88.8646 100.481 89.2145 99.668 90.0111L101.768 92.1537C101.932 91.9933 102.172 91.8646 102.637 91.8646V88.8646ZM99.6791 90.0003C98.9407 90.7092 98.4956 91.6017 98.3296 92.6115L101.29 93.0982C101.358 92.6823 101.519 92.3931 101.757 92.1645L99.6791 90.0003ZM99.8014 94.3548L105.089 94.3841L105.106 91.3842L99.818 91.3549L99.8014 94.3548ZM109.934 99.6575C109.605 99.9068 108.803 100.254 107.28 100.589L107.925 103.519C109.508 103.171 110.864 102.717 111.746 102.048L109.934 99.6575ZM107.271 100.591C105.818 100.92 104.421 101.081 103.076 101.081V104.081C104.662 104.081 106.282 103.891 107.934 103.517L107.271 100.591ZM103.076 101.081C101.663 101.081 100.499 101.015 99.5704 100.89L99.1701 103.863C100.273 104.011 101.58 104.081 103.076 104.081V101.081ZM99.5704 100.89C98.6597 100.767 97.754 100.548 96.8519 100.229L95.8534 103.058C96.9435 103.443 98.0495 103.712 99.1701 103.863L99.5704 100.89ZM96.8642 100.234C95.9872 99.9157 95.2737 99.5299 94.7022 99.0915L92.8762 101.472C93.7304 102.127 94.7259 102.649 95.8412 103.054L96.8642 100.234ZM94.7202 99.1055C94.2053 98.6979 93.7677 98.159 93.417 97.4575L90.7337 98.7991C91.2618 99.8554 91.9669 100.752 92.8581 101.458L94.7202 99.1055ZM93.4199 97.4634C93.1043 96.8253 92.9161 96.0038 92.9161 94.9496H89.9161C89.9161 96.3563 90.1674 97.654 90.7307 98.7932L93.4199 97.4634ZM92.9161 94.9496C92.9161 93.8943 93.1063 92.9624 93.466 92.1336L90.7139 90.9394C90.1752 92.1809 89.9161 93.5244 89.9161 94.9496H92.9161ZM93.466 92.1336C93.8441 91.2623 94.3074 90.6178 94.8306 90.1519L92.8356 87.9113C91.9331 88.715 91.2342 89.7404 90.7139 90.9394L93.466 92.1336ZM94.8314 90.1512C96.4435 88.7138 98.9028 87.8802 102.446 87.8802V84.8802C98.4705 84.8802 95.1876 85.8143 92.8349 87.912L94.8314 90.1512ZM102.446 87.8802C104.037 87.8802 105.536 88.1832 106.958 88.7865L108.13 86.0248C106.329 85.2609 104.43 84.8802 102.446 84.8802V87.8802ZM106.944 88.7804C108.272 89.3597 109.129 90.1806 109.637 91.2255L112.336 89.9139C111.476 88.1463 110.039 86.8579 108.144 86.0308L106.944 88.7804ZM109.642 91.2339C109.922 91.8012 110.072 92.4452 110.072 93.1918H113.072C113.072 92.0243 112.832 90.9202 112.331 89.9055L109.642 91.2339ZM110.076 93.083L109.901 95.5L112.893 95.7176L113.068 93.3006L110.076 93.083ZM111.404 94.1088L99.5241 94.0502L99.5093 97.0502L111.389 97.1087L111.404 94.1088ZM98.0663 95.9327C98.417 97.2624 99.2746 98.2707 100.478 98.9507L101.954 96.3391C101.36 96.0035 101.085 95.6153 100.967 95.1676L98.0663 95.9327ZM100.484 98.9541C101.701 99.6344 103.222 99.9066 104.922 99.9066V96.9066C103.497 96.9066 102.548 96.671 101.948 96.3357L100.484 98.9541ZM104.922 99.9066C106.746 99.9066 108.75 99.4135 110.904 98.517L109.751 95.7474C107.822 96.5502 106.223 96.9066 104.922 96.9066V99.9066ZM110.327 98.6322H111.118V95.6322H110.327V98.6322ZM109.622 97.0203L109.344 100.741L112.336 100.965L112.614 97.2441L109.622 97.0203Z" fill="#FF7487" mask="url(#path-4-outside-1_2008_470)"/>
</svg>
