<svg width="1920" height="1772" viewBox="0 0 1920 1772" fill="none" xmlns="http://www.w3.org/2000/svg">
<path d="M2318.99 967.805C2074.66 951.3 1898.73 849.008 1796.85 735.933M1796.85 735.933C1661.22 585.39 1656.84 415.736 1797.06 403.969C1894.92 395.756 1884.82 558.659 1796.85 735.933ZM1796.85 735.933C1702.61 925.849 1519.02 1132.26 1283.08 1162.44C999.414 1198.72 1006.19 883.696 1088.78 579.061M1088.78 579.061C1128.76 431.557 1152.26 329.225 1283.08 265.267C1419.93 198.362 1463.05 480.356 1088.78 579.061Z" stroke="#FF8093" stroke-width="38.7832"/>
<path d="M1076 594.376C870.605 697.767 755.712 850.382 708.834 985.308M708.834 985.308C646.422 1164.94 704.568 1313.22 830.203 1272.25C917.885 1243.65 849.669 1106.49 708.834 985.308ZM708.834 985.308C557.955 855.481 323.729 743.989 108.55 803.957C-150.159 876.057 -29.2915 1145.96 153.385 1379.22M153.385 1379.22C284.401 1546.52 447.21 1694.97 524.584 1738.09C678.295 1823.75 657.78 1501.37 153.385 1379.22ZM153.385 1379.22C49.8646 1354.15 -74.0381 1337.52 -221 1334.57" stroke="#FF8093" stroke-width="38.7832"/>
</svg>
