<svg xmlns="http://www.w3.org/2000/svg" width="150" height="150" fill="none"><circle cx="75" cy="75" r="75" fill="#DAEEFF"/><circle cx="75" cy="75" r="56.4607" fill="#FECDDC"/><path fill="#FF7487" d="M70.422 68.467c3.478-8.797-3.725-13.612-8.5-16.777-.913-.647-1.826-1.25-2.565-1.804-1.322-1.039-2.295-2.41-2.805-3.95a7.87 7.87 0 0 1-.07-4.736.86.86 0 0 0-.004-.496.9.9 0 0 0-.28-.422 1 1 0 0 0-.474-.225 1.05 1.05 0 0 0-.53.037 16.4 16.4 0 0 0-4.428 2.459 10 10 0 0 0-3.015 3.432 9.3 9.3 0 0 0-1.084 4.318c-.9.662-1.696 1.438-2.365 2.306-1.227 1.561-1.843 3.468-1.743 5.402a10.65 10.65 0 0 0-3.161 4.596 10 10 0 0 0-.318 5.452 2.96 2.96 0 0 0-1.281 1.413 2.7 2.7 0 0 0-.1 1.848c.184.61.578 1.146 1.121 1.527.543.38 1.206.584 1.885.58h.064v5.003c0 .507.217.994.602 1.353.385.36.908.56 1.453.56h1.597l2.602 21.015c.054.468.292.9.668 1.214s.863.488 1.368.487h10.828a2.15 2.15 0 0 0 1.369-.488c.377-.314.617-.745.675-1.213l2.602-21.014h1.598a2.14 2.14 0 0 0 1.453-.56 1.85 1.85 0 0 0 .601-1.354v-5.003h.064a3.23 3.23 0 0 0 2.201-.85 2.8 2.8 0 0 0 .912-2.051 2.7 2.7 0 0 0-.231-1.12 2.9 2.9 0 0 0-.682-.947zm-23.435-15.96c1.314 4.602 6.39 6.415 11.019 8.03a1.06 1.06 0 0 0 .84.089 1 1 0 0 0 .37-.209.9.9 0 0 0 .24-.336.87.87 0 0 0-.06-.786.95.95 0 0 0-.289-.3 1 1 0 0 0-.398-.159c-4.985-1.76-9.687-3.403-10.043-8.107a7.4 7.4 0 0 1 .759-3.763 8 8 0 0 1 2.574-2.984 15 15 0 0 1 2.227-1.43q-.075.886 0 1.77a9.6 9.6 0 0 0 1.163 3.866 10.2 10.2 0 0 0 2.69 3.136c.758.604 1.698 1.225 2.739 1.889 2.4 1.608 5.13 3.403 6.865 5.836a8.7 8.7 0 0 1 1.675 4.2 8.53 8.53 0 0 1-.68 4.435h-4.035c-8.317 0-17.876-2.144-19.765-8.15a6.44 6.44 0 0 1 .008-3.779 6.84 6.84 0 0 1 2.146-3.206zm7.486 29.002 3.049 2.842-3.05 2.841-3.049-2.858zm6.993 7.462-2.52 2.348-3.05-2.842 3.05-2.833 2.648 2.459zm-6.993 6.516-3.05-2.841 3.05-2.842 3.049 2.842zm-1.397-6.993-3.05 2.842-2.537-2.365-.11-.851 2.648-2.459zm-4.455 4.152-.612.57-.155-1.293zm-.32 2.91 1.726-1.608 3.35 3.147q.026.096.064.188h-4.93zm10.627-1.608 1.725 1.608-.21 1.701h-5.066zm2.008-.732-.611-.57.776-.723zm.913-7.436-1.524-1.446 1.935-1.804zm-2.93-2.74-2.894-2.688h5.788zm-8.901 0-2.895-2.688h5.788zm9.86 18.173h-10.82a.1.1 0 0 1-.042-.019.07.07 0 0 1-.021-.04l-.256-2.042h11.467l-.247 2.042a.07.07 0 0 1-.024.042.1.1 0 0 1-.049.017zm8.371-29.64h-3.177a1.1 1.1 0 0 0-.409.042q-.2.063-.355.194a.9.9 0 0 0-.241.311.87.87 0 0 0 0 .75.9.9 0 0 0 .24.312q.156.132.356.194.2.06.409.042h1.132v5.003a.07.07 0 0 1-.024.043.1.1 0 0 1-.049.017H42.787a.1.1 0 0 1-.049-.017.07.07 0 0 1-.024-.043v-5.003h18.085c.247-.022.475-.128.642-.299a.9.9 0 0 0 .258-.623.9.9 0 0 0-.258-.624 1.02 1.02 0 0 0-.642-.3H40.715a1.2 1.2 0 0 1-.464-.05 1.2 1.2 0 0 1-.402-.222 1.1 1.1 0 0 1-.272-.353 1 1 0 0 1 0-.85 1.1 1.1 0 0 1 .272-.354c.116-.099.253-.174.402-.22q.227-.072.464-.052h2.072a1.02 1.02 0 0 0 .641-.3.9.9 0 0 0 .259-.623.9.9 0 0 0-.259-.624 1.02 1.02 0 0 0-.641-.3H40.96a8.5 8.5 0 0 1 .125-3.903 8.9 8.9 0 0 1 1.865-3.498c.64 1.855 2.283 4.39 6.39 6.406 3.863 1.88 8.975 2.842 15.192 2.842h3.652c.157-.013.315.004.463.051q.227.072.402.221c.117.099.21.22.273.353a1 1 0 0 1 0 .851 1.1 1.1 0 0 1-.273.353 1.2 1.2 0 0 1-.401.221 1.2 1.2 0 0 1-.464.051z"/><mask id="a" width="45" height="21" x="68.4631" y="84.0541" fill="#000" maskUnits="userSpaceOnUse"><path fill="#fff" d="M68.463 84.054h45v21h-45z"/><path d="M86.184 91.537q-6.563 0-6.563 2.885 0 1.553 1.304 2.403 1.318.834 3.853.834 2.548 0 4.965-.41l.103 4.615q-2.783.732-6.065.732-3.28 0-5.507-.513-2.227-.498-3.487-1.113t-2.226-1.436q-2.08-1.757-2.066-4.687 0-1.816.718-3.281 1.318-2.68 4.6-3.926 3.281-1.26 7.236-1.26t7.5.88l-.366 4.701q-2.24-.424-4-.424m18.914 1.347q-.015-1.377-.645-1.948-.615-.57-1.816-.571-1.187 0-1.919.717-.732.704-.908 1.773zm5.742 7.969q-.909.688-3.237 1.201a20.5 20.5 0 0 1-4.527.527q-2.182 0-3.706-.205a15 15 0 0 1-3.017-.732q-1.493-.542-2.564-1.362-1.054-.836-1.714-2.154-.66-1.332-.659-3.178 0-1.86.674-3.413t1.743-2.505q2.975-2.652 8.613-2.652 2.682 0 5.098 1.026 2.417 1.054 3.442 3.164.586 1.186.586 2.622l-.175 2.417-11.88-.059q.352 1.333 1.699 2.095 1.362.762 3.706.762t5.405-1.275h.791z"/></mask><path fill="#FF7487" d="m80.925 96.825-.819 1.256.008.006.008.005zm8.818.424 1.5-.033-.039-1.736-1.712.29zm.103 4.615.382 1.45 1.144-.301-.026-1.183zm-11.572.219.336-1.461-.009-.002zm-5.713-2.549.97-1.143-.002-.002zm-2.066-4.687 1.5.008v-.008zm.718-3.281-1.346-.662-.001.002zm4.6-3.926.532 1.402.005-.002zm14.736-.38 1.495.116.1-1.267-1.234-.306zm-.366 4.701-.28 1.474 1.645.312.13-1.67zm-4-1.924c-2.25 0-4.143.24-5.525.848-.708.311-1.353.75-1.822 1.369a3.53 3.53 0 0 0-.715 2.168h3c0-.175.043-.273.106-.356.077-.103.253-.266.639-.435.805-.354 2.194-.594 4.318-.594zm-8.062 4.385c0 1.544.692 2.817 1.985 3.66l1.638-2.514c-.445-.29-.623-.619-.623-1.146zm2.001 3.67c1.226.776 2.842 1.067 4.656 1.067v-3c-1.566 0-2.518-.265-3.05-.602zm4.656 1.067q2.67 0 5.216-.43l-.502-2.959a28 28 0 0 1-4.715.39zm3.466-1.876.102 4.614 3-.067-.103-4.614zm1.22 3.13c-1.715.451-3.606.683-5.683.683v3c2.3 0 4.45-.256 6.447-.782zm-5.683.683c-2.119 0-3.833-.166-5.17-.474l-.674 2.923c1.631.376 3.588.551 5.844.551zm-5.18-.476c-1.432-.321-2.466-.66-3.156-.998l-1.316 2.696c.99.483 2.28.885 3.817 1.229zm-3.156-.998a9 9 0 0 1-1.914-1.231l-1.94 2.287a12 12 0 0 0 2.538 1.64zM73.53 98.39c-1.02-.861-1.541-1.987-1.534-3.534l-3-.016c-.011 2.36.843 4.359 2.597 5.841zm-1.534-3.542c0-1.008.198-1.872.565-2.621l-2.694-1.32c-.59 1.204-.87 2.528-.87 3.941zm.564-2.62c.682-1.387 1.887-2.464 3.786-3.185l-1.064-2.804c-2.477.94-4.339 2.48-5.414 4.666zm3.791-3.187c1.996-.766 4.223-1.16 6.699-1.16v-3c-2.798 0-5.395.446-7.774 1.36zm6.699-1.16q3.786.001 7.139.835l.722-2.912c-2.49-.617-5.113-.923-7.861-.923zm6.004-.737-.366 4.702 2.991.233.366-4.702zm1.41 3.344c-1.562-.295-2.99-.45-4.28-.45v3c1.056 0 2.293.127 3.72.398zm14.635 2.397-.009 1.5 1.525.009-.016-1.525zm-.645-1.948-1.02 1.1.006.005.007.006zm-3.735.146 1.039 1.083.005-.006.006-.005zm-.908 1.773-1.48-.243-.285 1.733 1.756.01zm11.03 7.998.906 1.195.539-.408.051-.675zm-3.237 1.201-.323-1.465-.009.002zm-11.25-.41-.512 1.41.012.004zm-2.564-1.362-.93 1.176.008.007.01.007zm-1.714-2.154-1.344.665.003.006zm1.758-9.096.998 1.12zm13.711-1.626.6-1.375-.007-.003-.007-.003zm3.442 3.164-1.349.656.005.008zm.586 2.622 1.496.109.004-.055v-.054zm-.175 2.417-.008 1.5 1.402.007.102-1.398zm-11.88-.059.007-1.5-1.957-.01.5 1.893zm1.699 2.095-.738 1.306.006.003zm9.111-.513v-1.5h-.299l-.277.115zm.791 0 1.496.112.121-1.612h-1.617zm-4.52-4.264c-.012-1.085-.261-2.249-1.137-3.043l-2.015 2.222c-.018-.016.016.003.059.133.046.137.089.366.093.72zm-1.124-3.031c-.787-.731-1.82-.972-2.837-.972v3c.584 0 .762.14.796.17zm-2.837-.972c-1.117 0-2.156.35-2.969 1.146l2.1 2.143c.164-.16.404-.29.869-.29zM99.679 90c-.738.71-1.183 1.602-1.35 2.612l2.961.486c.068-.416.229-.705.467-.933zm.122 4.355 5.288.03.017-3-5.288-.03zm10.133 5.302c-.329.25-1.131.597-2.654.932l.645 2.93c1.583-.348 2.939-.802 3.821-1.471zm-2.663.934q-2.178.492-4.195.49v3q2.38-.002 4.858-.564zm-4.195.49c-1.413 0-2.577-.066-3.506-.191l-.4 2.973c1.103.148 2.41.218 3.906.218zm-3.506-.191a13.6 13.6 0 0 1-2.718-.661l-.999 2.829q1.636.578 3.317.805zm-2.706-.656c-.877-.318-1.59-.704-2.162-1.142l-1.826 2.38c.854.655 1.85 1.177 2.965 1.582zm-2.144-1.128c-.515-.408-.952-.947-1.303-1.648l-2.683 1.341c.528 1.056 1.233 1.953 2.124 2.659zm-1.3-1.643c-.316-.638-.504-1.46-.504-2.513h-3c0 1.406.251 2.704.815 3.843zm-.504-2.513c0-1.056.19-1.988.55-2.816l-2.752-1.195c-.539 1.242-.798 2.585-.798 4.01zm.55-2.816c.378-.872.841-1.516 1.365-1.982l-1.995-2.24c-.903.803-1.602 1.828-2.122 3.027zm1.365-1.983c1.612-1.437 4.072-2.27 7.615-2.27v-3c-3.975 0-7.258.933-9.611 3.031zm7.615-2.27c1.591 0 3.09.302 4.512.906l1.172-2.762a14.4 14.4 0 0 0-5.684-1.145zm4.498.9c1.328.579 2.185 1.4 2.693 2.444l2.699-1.311c-.86-1.768-2.297-3.056-4.192-3.883zm2.698 2.453c.28.567.43 1.211.43 1.958h3c0-1.168-.24-2.272-.741-3.286zm.434 1.849-.175 2.417 2.992.218.175-2.417zm1.328 1.026-11.88-.059-.015 3 11.88.059zm-13.338 1.824c.351 1.33 1.209 2.338 2.412 3.018l1.476-2.612c-.594-.335-.869-.724-.987-1.171zm2.418 3.021c1.217.68 2.738.953 4.438.953v-3c-1.425 0-2.374-.236-2.974-.571zm4.438.953c1.824 0 3.828-.493 5.982-1.39l-1.153-2.77c-1.929.803-3.528 1.16-4.829 1.16zm5.405-1.275h.791v-3h-.791zm-.705-1.612-.278 3.721 2.992.224.278-3.72z" mask="url(#a)"/></svg>